HIERARCHY
ROOT Hips
{
	OFFSET 0.00000 0.00000 0.00000
	CHANNELS 6 Xposition Yposition Zposition Zrotation Yrotation Xrotation 
	JOINT LHipJoint
	{
		OFFSET 0 0 0
		CHANNELS 3 Zrotation Yrotation Xrotation
		JOINT LeftUpLeg
		{
			OFFSET 1.73240 -1.89999 0.57994
			CHANNELS 3 Zrotation Yrotation Xrotation
			JOINT LeftLeg
			{
				OFFSET 2.43106 -6.67930 0.00000
				CHANNELS 3 Zrotation Yrotation Xrotation
				JOINT LeftFoot
				{
					OFFSET 2.78854 -7.66147 0.00000
					CHANNELS 3 Zrotation Yrotation Xrotation
					JOINT LeftToeBase
					{
						OFFSET 0.17314 -0.47571 2.01064
						CHANNELS 3 Zrotation Yrotation Xrotation
						End Site
						{
							OFFSET 0.00000 -0.00000 1.04147
						}
					}
				}
			}
		}
	}
	JOINT RHipJoint
	{
		OFFSET 0 0 0
		CHANNELS 3 Zrotation Yrotation Xrotation
		JOINT RightUpLeg
		{
			OFFSET -1.57078 -1.89998 0.57994
			CHANNELS 3 Zrotation Yrotation Xrotation
			JOINT RightLeg
			{
				OFFSET -2.50166 -6.87326 0.00000
				CHANNELS 3 Zrotation Yrotation Xrotation
				JOINT RightFoot
				{
					OFFSET -2.77304 -7.61886 0.00000
					CHANNELS 3 Zrotation Yrotation Xrotation
					JOINT RightToeBase
					{
						OFFSET -0.23513 -0.64602 2.11039
						CHANNELS 3 Zrotation Yrotation Xrotation
						End Site
						{
							OFFSET -0.00000 -0.00000 1.10597
						}
					}
				}
			}
		}
	}
	JOINT LowerBack
	{
		OFFSET 0 0 0
		CHANNELS 3 Zrotation Yrotation Xrotation
		JOINT Spine
		{
			OFFSET -0.00908 2.00015 -0.35323
			CHANNELS 3 Zrotation Yrotation Xrotation
			JOINT Spine1
			{
				OFFSET 0.05647 2.02258 0.04270
				CHANNELS 3 Zrotation Yrotation Xrotation
				JOINT Neck
				{
					OFFSET 0 0 0
					CHANNELS 3 Zrotation Yrotation Xrotation
					JOINT Neck1
					{
						OFFSET -0.02074 1.73711 0.13117
						CHANNELS 3 Zrotation Yrotation Xrotation
						JOINT Head
						{
							OFFSET -0.02359 1.73615 -0.24320
							CHANNELS 3 Zrotation Yrotation Xrotation
							End Site
							{
								OFFSET -0.00579 1.75982 -0.09688
							}
						}
					}
				}
				JOINT LeftShoulder
				{
					OFFSET 0 0 0
					CHANNELS 3 Zrotation Yrotation Xrotation
					JOINT LeftArm
					{
						OFFSET 3.20537 1.11432 -0.27680
						CHANNELS 3 Zrotation Yrotation Xrotation
						JOINT LeftForeArm
						{
							OFFSET 5.05923 -0.00000 -0.00000
							CHANNELS 3 Zrotation Yrotation Xrotation
							JOINT LeftHand
							{
								OFFSET 3.51996 -0.00000 0.00000
								CHANNELS 3 Zrotation Yrotation Xrotation
								JOINT LeftFingerBase
								{
									OFFSET 0 0 0
									CHANNELS 3 Zrotation Yrotation Xrotation
									JOINT LeftHandIndex1
									{
										OFFSET 0.65238 -0.00000 0.00000
										CHANNELS 3 Zrotation Yrotation Xrotation
										End Site
										{
											OFFSET 0.52596 -0.00000 0.00000
										}
									}
								}
								JOINT LThumb
								{
									OFFSET 0 0 0
									CHANNELS 3 Zrotation Yrotation Xrotation
									End Site
									{
										OFFSET 0.53399 -0.00000 0.53399
									}
								}
							}
						}
					}
				}
				JOINT RightShoulder
				{
					OFFSET 0 0 0
					CHANNELS 3 Zrotation Yrotation Xrotation
					JOINT RightArm
					{
						OFFSET -2.96983 1.42602 -0.37449
						CHANNELS 3 Zrotation Yrotation Xrotation
						JOINT RightForeArm
						{
							OFFSET -5.40867 -0.00000 0.00000
							CHANNELS 3 Zrotation Yrotation Xrotation
							JOINT RightHand
							{
								OFFSET -3.12964 -0.00000 0.00000
								CHANNELS 3 Zrotation Yrotation Xrotation
								JOINT RightFingerBase
								{
									OFFSET 0 0 0
									CHANNELS 3 Zrotation Yrotation Xrotation
									JOINT RightHandIndex1
									{
										OFFSET -0.83271 -0.00000 0.00000
										CHANNELS 3 Zrotation Yrotation Xrotation
										End Site
										{
											OFFSET -0.67135 -0.00000 0.00000
										}
									}
								}
								JOINT RThumb
								{
									OFFSET 0 0 0
									CHANNELS 3 Zrotation Yrotation Xrotation
									End Site
									{
										OFFSET -0.68160 -0.00000 0.68160
									}
								}
							}
						}
					}
				}
			}
		}
	}
}
MOTION
Frames: 13
Frame Time: 0.0444444
0.00 0.00 0.00 -5.3181 -2.4265 -3.9472 0.0000 0.0000 0.0000 -11.0650 -14.7715 -23.8562 2.0634 8.9970 25.7859 -0.0002 6.7578 -9.6347 0.5208 -4.6251 -12.8422 0.0000 0.0000 0.0000 33.8965 -1.1018 8.7451 -1.5436 -7.8427 22.2373 -0.5207 -12.3991 -23.1829 -0.1710 -2.6639 7.3444 4.4802 0.8309 17.8892 4.4744 2.4812 0.2090 1.6931 1.0880 -9.8685 -5.7070 -6.1099 -8.2151 -0.8647 -7.4116 29.2728 -0.2138 -4.0953 10.9868 -0.0000 -0.0000 0.0000 -88.6063 24.6668 2.3540 17.9650 -28.1124 -4.5327 -0.0000 0.0000 -1.9240 13.1559 51.2847 10.3358 -7.1250 0.0000 -0.0000 -59.8195 75.5742 -46.2753 -0.0000 -0.0000 0.0000 81.0858 -6.5589 -17.8510 -105.1150 59.1189 -73.0512 0.0000 -0.0000 -22.9827 -17.8829 -0.5410 0.1745 7.1250 -0.0000 -0.0000 6.8731 -30.5088 2.4479
0.00 0.00 0.00 -5.1469 -3.8504 -3.4251 0.0000 0.0000 0.0000 -8.8541 -21.2230 -21.7757 1.0325 6.4632 18.1345 0.2425 8.9190 -16.4300 0.4929 -4.5016 -12.4922 0.0000 0.0000 0.0000 32.8876 -2.6863 12.6410 -1.2829 -7.1776 20.2426 -0.4434 -10.8518 -20.8078 -0.0047 -0.4433 1.2180 4.3169 1.1853 16.6942 4.0920 2.7654 0.5389 1.3111 1.2398 -8.8153 -5.2949 -5.5620 -8.2007 -0.3148 -6.8581 28.8747 -0.0075 -3.7360 10.8150 -0.0000 -0.0000 0.0000 -89.1129 24.8335 1.4929 18.9009 -29.2954 -4.9823 -0.0000 0.0000 -3.5338 13.0026 50.7160 10.1337 -7.1250 0.0000 -0.0000 -57.8913 75.2760 -44.2880 -0.0000 -0.0000 0.0000 81.6223 -7.1374 -14.9259 -123.8300 55.1998 -88.8254 0.0000 -0.0000 -11.0103 -17.4139 0.1753 -0.0550 7.1250 -0.0000 -0.0000 7.1875 -29.7582 2.6913
0.00 0.00 0.00 -4.4267 -6.6917 -4.4094 0.0000 0.0000 0.0000 -12.3956 -16.3699 -21.6044 1.8238 8.4889 24.2092 0.0710 -0.9827 -4.7836 0.9142 -6.0923 -17.0526 0.0000 0.0000 0.0000 30.1267 -3.9654 14.8821 -3.3645 -11.2629 33.1718 0.2885 -10.4167 -8.4564 -0.0168 0.8371 -2.3007 3.8858 1.5596 16.2624 3.4863 3.0821 0.7107 0.8356 1.4038 -8.3676 -3.8485 -4.1311 -7.7751 -0.5727 -5.0500 28.9735 -0.1155 -2.7960 10.6519 -0.0000 -0.0000 0.0000 -90.3292 24.6209 3.2062 20.1088 -30.7732 -5.5869 -0.0000 0.0000 -3.2282 13.7788 48.7695 10.4496 -7.1250 0.0000 -0.0000 -50.8579 74.6163 -37.6941 -0.0000 -0.0000 0.0000 81.1188 -13.9802 3.0617 -134.7417 50.8944 -97.5610 0.0000 0.0000 27.7332 -25.2658 5.8334 -2.7463 7.1250 -0.0000 -0.0000 1.0720 -23.5345 0.5549
0.00 0.00 0.00 -1.1813 -6.8866 -5.1021 0.0000 0.0000 0.0000 -17.3854 -17.3643 -19.1359 2.3400 9.5409 27.5025 0.0004 0.1981 0.3412 0.1445 -2.4500 -6.7510 0.0000 0.0000 0.0000 25.4895 -2.7486 9.5885 -6.1389 -14.5616 45.5368 0.3186 -13.8776 5.2625 -0.2844 -3.4298 9.4777 0.9152 1.6369 16.1723 2.5498 2.5692 0.2925 1.6239 1.2543 -8.8582 -3.6496 -3.6541 -7.7583 -0.4361 -4.4720 30.4591 -0.0532 -2.5050 11.2021 -0.0000 -0.0000 0.0000 -90.4493 23.7106 4.7028 19.7936 -30.3928 -5.4265 -0.0000 0.0000 -2.0154 13.4709 48.8745 10.2284 -7.1250 0.0000 -0.0000 -51.4388 74.5561 -38.1158 -0.0000 -0.0000 0.0000 80.2966 -16.0359 11.5131 -119.7263 56.3824 -85.4311 0.0000 0.0000 33.1981 -28.9021 8.0809 -4.4376 7.1250 -0.0000 -0.0000 -1.4778 -20.7690 -0.8580
0.00 0.00 0.00 -0.7562 -6.8020 -5.8663 0.0000 0.0000 0.0000 -18.7376 -14.8719 -19.1190 2.9147 10.5557 30.7957 -0.0357 -3.4625 0.3209 0.0159 -0.8131 -2.2347 0.0000 0.0000 0.0000 24.8603 -1.4804 5.6936 -8.3767 -16.3895 53.9086 0.3744 -19.5621 10.3323 -1.7628 -8.3536 23.7933 0.4298 1.5413 16.8433 2.3558 2.3318 0.7421 1.7354 1.1533 -8.7480 -3.3641 -3.5033 -8.1377 -0.2144 -4.3573 29.9474 -0.0096 -2.3926 11.0734 0.0000 -0.0000 0.0000 -90.1360 22.2709 6.5310 20.5443 -31.2926 -5.8114 -0.0000 0.0000 -2.0333 12.6267 49.3807 9.6502 -7.1250 0.0000 -0.0000 -53.7061 74.5006 -39.9461 0.0000 -0.0000 0.0000 79.9818 -14.8908 14.9255 -99.5261 59.6543 -68.2403 0.0000 0.0000 34.2837 -32.0675 11.0201 -6.8292 7.1250 -0.0000 -0.0000 -3.4575 -17.0523 -2.2958
0.00 0.00 0.00 -0.1107 -7.0912 -6.9241 0.0000 0.0000 0.0000 -20.1092 -13.8208 -17.5844 3.1789 10.9792 32.2097 -0.0303 -4.0809 -1.3584 0.0046 -0.4359 -1.1976 0.0000 0.0000 0.0000 24.0516 -0.7072 3.7870 -9.7612 -17.2734 58.6873 0.5070 -21.0997 10.4986 -1.8040 -8.4453 24.0750 -0.3654 1.5679 17.7179 2.2149 2.2008 1.0323 2.0533 1.1167 -8.9389 -3.5344 -3.4071 -8.2879 0.0837 -4.2706 29.8912 0.1352 -2.3382 11.0922 -0.0000 -0.0000 0.0000 -89.9394 21.7902 8.2480 21.4029 -32.2956 -6.2638 -0.0000 0.0000 -2.7929 12.3071 50.3715 9.5383 -7.1250 0.0000 -0.0000 -57.1792 74.8560 -43.2454 -0.0000 -0.0000 0.0000 79.7774 -12.8797 16.3154 -78.9501 59.5336 -50.4455 0.0000 0.0000 35.3580 -35.7609 13.7367 -9.7046 7.1250 -0.0000 -0.0000 -5.6211 -13.2740 -4.2010
0.00 0.00 0.00 2.9333 -6.7828 -8.7159 0.0000 0.0000 0.0000 -26.5518 -10.9971 -8.5857 3.1533 10.9391 32.0749 0.2142 -4.3019 -8.3110 0.0567 -1.5371 -4.2279 0.0000 0.0000 0.0000 19.2365 2.0235 -9.4867 -14.5494 -19.2723 73.8756 0.6008 -13.6933 -3.1834 -0.3211 -3.6422 10.0722 -3.1561 1.7777 17.9164 2.2417 1.9181 1.2002 3.7474 1.0940 -8.9489 -3.5846 -3.0554 -8.1963 -1.9116 -3.1654 32.2376 -0.4871 -2.0966 11.9482 -0.0000 -0.0000 0.0000 -86.6981 16.9015 20.9151 23.9142 -35.0734 -7.6572 -0.0000 0.0000 -1.8094 11.4077 49.3827 8.7079 -7.1250 0.0000 -0.0000 -54.6466 74.0425 -40.2752 -0.0000 -0.0000 0.0000 79.6317 1.2186 3.5197 -18.8889 29.2804 -4.9764 0.0000 0.0000 36.1784 -16.5432 16.0659 -4.6993 7.1250 -0.0000 -0.0000 7.4785 -13.3617 5.5967
0.00 0.00 0.00 4.2462 -3.8228 -8.8260 0.0000 0.0000 0.0000 -29.6731 -9.8817 -4.1091 3.2032 11.0169 32.3371 0.3823 -6.3391 -11.2024 0.0142 -0.7697 -2.1153 0.0000 0.0000 0.0000 16.0772 1.8836 -17.7910 -13.9911 -19.1113 72.1774 0.0905 -8.2283 -9.6756 -0.1815 -2.7442 7.5673 -3.3194 1.2001 17.8935 2.4998 1.1510 0.8047 4.3242 0.7558 -9.3095 -3.6612 -2.9223 -7.3423 -3.1062 -2.6082 32.5686 -0.8408 -1.9939 11.8904 -0.0000 0.0000 0.0000 -84.6164 14.8419 25.2061 30.6381 -41.4341 -11.8296 -0.0000 0.0000 -0.4995 11.8985 48.0439 8.9054 -7.1250 0.0000 -0.0000 -50.2689 73.5090 -36.1550 -0.0000 0.0000 0.0000 80.1458 3.7796 -28.8756 -10.1437 16.9641 -1.5166 0.0000 0.0000 3.9513 -10.9557 2.2551 -0.4364 7.1250 -0.0000 -0.0000 11.9761 -27.6158 5.1652
0.00 0.00 0.00 6.4270 -0.8388 -7.6946 0.0000 0.0000 0.0000 -33.1361 -6.4211 2.5997 2.7308 10.2460 29.7771 0.6578 -6.3892 -14.4867 0.0348 -1.2038 -3.3098 0.0000 0.0000 0.0000 11.4845 5.0210 -26.2153 -9.5053 -17.1221 57.8219 -0.1922 -9.8313 -16.8134 -0.3241 -3.6591 10.1196 -5.0764 0.2362 18.1902 2.5992 -0.4904 0.1952 5.8928 0.0919 -9.9685 -3.9694 -2.7647 -7.0492 -3.2633 -2.3114 31.8714 -0.7896 -1.9042 11.5563 -0.0000 -0.0000 0.0000 -82.5147 14.9082 24.8028 45.3908 -50.9585 -22.5419 -0.0000 0.0000 -13.4581 20.6470 45.1295 14.9518 -7.1250 0.0000 -0.0000 -33.4470 74.8696 -24.1648 -0.0000 -0.0000 0.0000 83.0298 -4.4793 -34.1669 -15.5555 24.9142 -3.4566 0.0000 -0.0000 -16.9670 -19.3729 -0.8697 0.3058 7.1250 -0.0000 -0.0000 5.7190 -30.8730 1.9828
0.00 0.00 0.00 6.2624 -0.8897 -5.2917 0.0000 0.0000 0.0000 -31.1646 -1.5944 18.6510 1.6391 8.0701 22.9272 -0.0944 -8.7029 -4.0674 0.8986 -6.0416 -16.9051 0.0000 0.0000 0.0000 9.7719 14.9269 -24.0429 -2.0073 -8.8813 25.4246 0.0539 -9.0961 -11.9360 -0.0024 -0.3178 0.8732 -6.6094 -2.3934 17.9558 3.7317 -4.1592 1.5641 8.8501 -1.7463 -7.5984 -1.3132 -0.6169 -9.0504 -5.7943 0.9395 29.2789 -1.7702 -0.4206 10.9511 0.0000 -0.0000 0.0000 -78.5193 17.4745 20.9321 45.8923 -51.1982 -22.9320 -0.0000 0.0000 -12.9838 22.7801 43.7722 16.1997 -7.1250 0.0000 -0.0000 -27.4807 74.6111 -19.5459 0.0000 -0.0000 0.0000 82.3523 -14.8211 -43.7224 -49.4312 52.7635 -25.7206 0.0000 -0.0000 -30.8986 -4.0726 3.5844 -0.2550 7.1250 -0.0000 -0.0000 16.9484 -26.2897 8.0230
0.00 0.00 0.00 4.5060 -2.1694 -5.4653 0.0000 0.0000 0.0000 -28.6999 -0.4484 15.4220 3.2096 11.0269 32.3707 -0.0135 -5.8944 8.0179 1.5831 -7.9377 -22.5249 0.0000 0.0000 0.0000 13.1275 14.1415 -23.6156 -2.7860 -10.3403 30.0860 0.1953 -7.8993 -4.1669 -0.0368 -1.2378 3.4033 -5.0618 -2.9114 18.5918 4.2092 -4.5171 1.4478 8.6325 -1.9323 -8.0863 -0.7322 0.0481 -8.2081 -6.7415 1.9938 29.2886 -2.0912 0.0186 10.8324 0.0000 -0.0000 0.0000 -80.3028 18.9631 18.1918 38.5442 -47.1834 -17.3637 -0.0000 0.0000 -9.9175 21.6603 44.9789 15.6805 -7.1250 0.0000 -0.0000 -31.8534 75.1402 -23.1352 0.0000 -0.0000 0.0000 79.1985 -16.6367 -46.0815 -62.5066 56.9417 -36.4345 0.0000 -0.0000 -47.1324 9.8755 -1.2351 -0.2150 7.1250 -0.0000 -0.0000 28.0184 -30.2865 11.3240
0.00 0.00 0.00 2.7908 -2.5658 -5.8279 0.0000 0.0000 0.0000 -25.4664 -0.7258 7.4904 6.2773 14.6918 46.0848 1.7937 2.7145 24.6139 0.0049 -0.4502 -1.2370 0.0000 0.0000 0.0000 17.0978 11.3871 -20.5042 -3.2317 -11.0611 32.4861 0.0252 -4.2492 -4.9360 -0.2103 -2.9527 8.1472 -3.9181 -3.1810 18.7806 4.6554 -4.6055 1.9665 8.4699 -2.0446 -7.6570 -0.5760 0.2738 -8.1061 -6.9833 2.3331 29.0761 -2.1625 0.1675 10.7491 0.0000 0.0000 0.0000 -82.4860 18.6017 15.5149 32.7223 -43.1155 -13.2319 -0.0000 0.0000 -8.9457 19.2312 48.8706 14.7223 -7.1250 0.0000 -0.0000 -46.5738 76.8013 -36.1270 0.0000 0.0000 0.0000 78.7074 -16.8193 -49.0510 -85.1000 59.9091 -55.7577 0.0000 -0.0000 -52.8770 5.5857 -1.6015 -0.1566 7.1250 -0.0000 -0.0000 25.0442 -30.8541 9.4837
0.00 0.00 0.00 1.2334 -2.8807 -6.0968 0.0000 0.0000 0.0000 -22.6244 -0.7896 1.5547 8.7306 16.6312 55.1537 2.2859 5.7656 27.3895 0.0039 -0.4047 -1.1119 0.0000 0.0000 0.0000 20.1440 11.0942 -17.0841 -3.2977 -11.1621 32.8285 -0.0177 -4.7230 -7.3301 -0.3324 -3.7055 10.2496 -2.8583 -3.1827 19.1098 4.8815 -4.3744 2.2167 8.0698 -1.9671 -7.6636 -0.4108 0.2850 -7.5106 -6.7985 2.2538 29.2707 -2.1360 0.1753 10.6976 -0.0000 0.0000 0.0000 -83.3732 18.1516 14.6093 30.1349 -41.0087 -11.4980 -0.0000 0.0000 -7.7037 17.9317 49.2367 13.7718 -7.1250 0.0000 -0.0000 -49.0036 76.4846 -37.8823 -0.0000 0.0000 0.0000 78.4584 -16.1128 -49.7569 -102.8369 59.3681 -71.0935 0.0000 -0.0000 -52.9023 8.0809 -1.0673 -0.1515 7.1250 -0.0000 -0.0000 26.7047 -30.2390 10.6999
